<svg xmlns="http://www.w3.org/2000/svg" xml:space="preserve" width="2000" height="1500" data-id="lg_NyqCU6lZf8xpNA5Epa" data-version="1" viewBox="0 0 2000 1500"><path fill="#fff" stroke="transparent" d="M0 0h2000v1500H0z"/><g data-padding="20"><g transform="translate(-1661.29 -1247.774)scale(2.59182)"><rect width="587.081" height="401.15" x="493.884" y="410.14" fill="none" rx="0" ry="0" transform="matrix(.95 0 0 .95 278.75 190.62)"/><path fill="#212121" d="M973.584 756.236q76.893 0 76.893 48.906 0 22.932-10.45 38.95-10.46 16.016-37.44 24.956t-74.869 8.94H775.956q2.697-65.428 2.697-122.428 0-56.99-2.698-122.417h79.258v.332h71.83q41.818 0 65.94 6.916 24.11 6.916 34.057 20.064 9.946 13.158 9.946 33.393 0 20.567-14.326 36.594-14.335 16.017-49.077 25.792m-53.618-61.38h-64.752v31.37h64.752q20.91 0 29.175-3.715 8.255-3.705 8.255-13.49 0-7.753-8.597-10.954-8.598-3.21-28.833-3.21m-64.752 121.41h64.752q17.537 0 26.81-1.51 9.271-1.52 13.318-5.398 4.047-3.885 4.047-10.63 0-8.769-9.604-12.645-9.615-3.876-34.57-3.876h-64.753Z"/><path fill="#212121" d="M1199.542 633.144h90.383l-22.259 51.594q-29.336 68.467-46.199 109.611-16.862 41.145-31.027 83.64h-100.842q-13.823-41.82-30.514-82.794-16.7-40.983-44.688-105.06-4.722-10.793-24.624-56.99h93.755q10.118 32.707 30.02 83.97 17.537 45.191 28.33 78.241 7.077-23.265 17.033-49.742 9.946-26.476 11.97-32.205 19.56-51.604 28.662-80.265"/></g><path fill="transparent" stroke="transparent" stroke-width="2.688" d="M250 237.903h1500v1024.194H250z"/></g></svg>